<mxfile host="app.diagrams.net" modified="2023-11-20T22:57:14.379Z" agent="Mozilla/5.0 (Windows NT 10.0; Win64; x64) AppleWebKit/537.36 (KHTML, like Gecko) Chrome/119.0.0.0 Safari/537.36" etag="QOUQtgUJaRT8BaWZktTD" version="22.1.3" type="google">
  <diagram name="Page-1" id="74e2e168-ea6b-b213-b513-2b3c1d86103e">
    <mxGraphModel grid="1" page="1" gridSize="10" guides="1" tooltips="1" connect="1" arrows="1" fold="1" pageScale="1" pageWidth="1100" pageHeight="850" background="#D9D9D9" math="0" shadow="0">
      <root>
        <mxCell id="0" />
        <mxCell id="1" parent="0" />
        <mxCell id="3L355mtgaOU9kcWpbx09-1" value="User" style="rounded=0;whiteSpace=wrap;html=1;fillColor=#dae8fc;strokeColor=#6c8ebf;" vertex="1" parent="1">
          <mxGeometry x="120" y="334.33" width="120" height="60" as="geometry" />
        </mxCell>
        <mxCell id="3L355mtgaOU9kcWpbx09-2" value="Menu" style="rounded=0;whiteSpace=wrap;html=1;fillColor=#f5f5f5;strokeColor=#666666;fontColor=#333333;" vertex="1" parent="1">
          <mxGeometry x="478.75" y="363.33" width="120" height="60" as="geometry" />
        </mxCell>
        <mxCell id="3L355mtgaOU9kcWpbx09-4" value="Order" style="rounded=0;whiteSpace=wrap;html=1;fillColor=#f5f5f5;strokeColor=#666666;fontColor=#333333;" vertex="1" parent="1">
          <mxGeometry x="455" y="637.75" width="120" height="60" as="geometry" />
        </mxCell>
        <mxCell id="3L355mtgaOU9kcWpbx09-6" value="Cart" style="rounded=0;whiteSpace=wrap;html=1;fillColor=#f5f5f5;fontColor=#333333;strokeColor=#666666;" vertex="1" parent="1">
          <mxGeometry x="202.5" y="1070" width="120" height="60" as="geometry" />
        </mxCell>
        <mxCell id="3L355mtgaOU9kcWpbx09-12" value="Phone Number" style="ellipse;whiteSpace=wrap;html=1;" vertex="1" parent="1">
          <mxGeometry x="-263.75" y="408.75" width="70" height="50" as="geometry" />
        </mxCell>
        <mxCell id="3L355mtgaOU9kcWpbx09-19" value="" style="endArrow=none;html=1;rounded=0;entryX=0.5;entryY=1;entryDx=0;entryDy=0;exitX=0.25;exitY=0;exitDx=0;exitDy=0;" edge="1" parent="1" source="J_jbF_1rIXWuA6073IJa-2" target="3L355mtgaOU9kcWpbx09-12">
          <mxGeometry width="50" height="50" relative="1" as="geometry">
            <mxPoint x="150" y="320" as="sourcePoint" />
            <mxPoint x="310" y="240" as="targetPoint" />
          </mxGeometry>
        </mxCell>
        <mxCell id="3L355mtgaOU9kcWpbx09-20" value="Password" style="ellipse;whiteSpace=wrap;html=1;" vertex="1" parent="1">
          <mxGeometry x="-300" y="580" width="70" height="50" as="geometry" />
        </mxCell>
        <mxCell id="3L355mtgaOU9kcWpbx09-21" value="" style="endArrow=none;html=1;rounded=0;exitX=0.175;exitY=1.028;exitDx=0;exitDy=0;exitPerimeter=0;" edge="1" parent="1" source="J_jbF_1rIXWuA6073IJa-2" target="3L355mtgaOU9kcWpbx09-20">
          <mxGeometry width="50" height="50" relative="1" as="geometry">
            <mxPoint x="140" y="378" as="sourcePoint" />
            <mxPoint x="264" y="290" as="targetPoint" />
          </mxGeometry>
        </mxCell>
        <mxCell id="3L355mtgaOU9kcWpbx09-22" value="Email" style="ellipse;whiteSpace=wrap;html=1;" vertex="1" parent="1">
          <mxGeometry x="-51.25" y="585.33" width="70" height="50" as="geometry" />
        </mxCell>
        <mxCell id="3L355mtgaOU9kcWpbx09-23" value="" style="endArrow=none;html=1;rounded=0;exitX=1;exitY=1;exitDx=0;exitDy=0;" edge="1" parent="1" source="J_jbF_1rIXWuA6073IJa-2" target="3L355mtgaOU9kcWpbx09-22">
          <mxGeometry width="50" height="50" relative="1" as="geometry">
            <mxPoint x="206" y="348" as="sourcePoint" />
            <mxPoint x="330" y="260" as="targetPoint" />
          </mxGeometry>
        </mxCell>
        <mxCell id="3L355mtgaOU9kcWpbx09-24" value="Address" style="ellipse;whiteSpace=wrap;html=1;" vertex="1" parent="1">
          <mxGeometry x="-350" y="455" width="70" height="50" as="geometry" />
        </mxCell>
        <mxCell id="3L355mtgaOU9kcWpbx09-25" value="" style="endArrow=none;html=1;rounded=0;entryX=1;entryY=1;entryDx=0;entryDy=0;exitX=-0.033;exitY=0.145;exitDx=0;exitDy=0;exitPerimeter=0;" edge="1" parent="1" source="J_jbF_1rIXWuA6073IJa-2" target="3L355mtgaOU9kcWpbx09-24">
          <mxGeometry width="50" height="50" relative="1" as="geometry">
            <mxPoint x="130" y="350" as="sourcePoint" />
            <mxPoint x="270" y="300" as="targetPoint" />
          </mxGeometry>
        </mxCell>
        <mxCell id="3L355mtgaOU9kcWpbx09-27" value="Name" style="ellipse;whiteSpace=wrap;html=1;" vertex="1" parent="1">
          <mxGeometry x="-10" y="490.00000000000006" width="70" height="50" as="geometry" />
        </mxCell>
        <mxCell id="3L355mtgaOU9kcWpbx09-28" value="" style="endArrow=none;html=1;rounded=0;exitX=1;exitY=0.5;exitDx=0;exitDy=0;entryX=-0.029;entryY=0.645;entryDx=0;entryDy=0;entryPerimeter=0;" edge="1" parent="1" source="J_jbF_1rIXWuA6073IJa-2" target="3L355mtgaOU9kcWpbx09-27">
          <mxGeometry width="50" height="50" relative="1" as="geometry">
            <mxPoint x="180" y="518" as="sourcePoint" />
            <mxPoint x="220" y="220" as="targetPoint" />
          </mxGeometry>
        </mxCell>
        <mxCell id="3L355mtgaOU9kcWpbx09-30" value="Payment information" style="ellipse;whiteSpace=wrap;html=1;" vertex="1" parent="1">
          <mxGeometry x="-290" y="660" width="70" height="50" as="geometry" />
        </mxCell>
        <mxCell id="3L355mtgaOU9kcWpbx09-31" value="" style="endArrow=none;html=1;rounded=0;exitX=0.363;exitY=1.017;exitDx=0;exitDy=0;entryX=0.5;entryY=0;entryDx=0;entryDy=0;exitPerimeter=0;" edge="1" parent="1" source="J_jbF_1rIXWuA6073IJa-2" target="3L355mtgaOU9kcWpbx09-30">
          <mxGeometry width="50" height="50" relative="1" as="geometry">
            <mxPoint x="196" y="588" as="sourcePoint" />
            <mxPoint x="320" y="500" as="targetPoint" />
          </mxGeometry>
        </mxCell>
        <mxCell id="3L355mtgaOU9kcWpbx09-32" value="Name" style="ellipse;whiteSpace=wrap;html=1;" vertex="1" parent="1">
          <mxGeometry x="403.13" y="284.33" width="70" height="50" as="geometry" />
        </mxCell>
        <mxCell id="3L355mtgaOU9kcWpbx09-33" value="" style="endArrow=none;html=1;rounded=0;exitX=0.083;exitY=-0.067;exitDx=0;exitDy=0;exitPerimeter=0;entryX=0.724;entryY=0.918;entryDx=0;entryDy=0;entryPerimeter=0;" edge="1" parent="1" source="3L355mtgaOU9kcWpbx09-2" target="3L355mtgaOU9kcWpbx09-32">
          <mxGeometry width="50" height="50" relative="1" as="geometry">
            <mxPoint x="419.13" y="384.33" as="sourcePoint" />
            <mxPoint x="543.13" y="296.33" as="targetPoint" />
          </mxGeometry>
        </mxCell>
        <mxCell id="3L355mtgaOU9kcWpbx09-34" value="Description" style="ellipse;whiteSpace=wrap;html=1;" vertex="1" parent="1">
          <mxGeometry x="573.13" y="254.32999999999998" width="70" height="50" as="geometry" />
        </mxCell>
        <mxCell id="3L355mtgaOU9kcWpbx09-35" value="" style="endArrow=none;html=1;rounded=0;entryX=0.5;entryY=1;entryDx=0;entryDy=0;exitX=0.75;exitY=0;exitDx=0;exitDy=0;" edge="1" parent="1" source="3L355mtgaOU9kcWpbx09-2" target="3L355mtgaOU9kcWpbx09-34">
          <mxGeometry width="50" height="50" relative="1" as="geometry">
            <mxPoint x="444.13" y="384.33" as="sourcePoint" />
            <mxPoint x="648.13" y="300.46999999999997" as="targetPoint" />
          </mxGeometry>
        </mxCell>
        <mxCell id="3L355mtgaOU9kcWpbx09-37" value="Price" style="ellipse;whiteSpace=wrap;html=1;" vertex="1" parent="1">
          <mxGeometry x="361.86" y="406.33" width="70" height="50" as="geometry" />
        </mxCell>
        <mxCell id="3L355mtgaOU9kcWpbx09-38" value="" style="endArrow=none;html=1;rounded=0;exitX=0;exitY=0.5;exitDx=0;exitDy=0;entryX=0.99;entryY=0.36;entryDx=0;entryDy=0;entryPerimeter=0;" edge="1" parent="1" source="3L355mtgaOU9kcWpbx09-2" target="3L355mtgaOU9kcWpbx09-37">
          <mxGeometry width="50" height="50" relative="1" as="geometry">
            <mxPoint x="363.13" y="422.33" as="sourcePoint" />
            <mxPoint x="487.13" y="334.33" as="targetPoint" />
          </mxGeometry>
        </mxCell>
        <mxCell id="3L355mtgaOU9kcWpbx09-39" value="Category" style="ellipse;whiteSpace=wrap;html=1;" vertex="1" parent="1">
          <mxGeometry x="643.13" y="316.83" width="70" height="50" as="geometry" />
        </mxCell>
        <mxCell id="3L355mtgaOU9kcWpbx09-40" value="" style="endArrow=none;html=1;rounded=0;exitX=1;exitY=0.5;exitDx=0;exitDy=0;entryX=0.345;entryY=1.029;entryDx=0;entryDy=0;entryPerimeter=0;" edge="1" parent="1" source="3L355mtgaOU9kcWpbx09-2" target="3L355mtgaOU9kcWpbx09-39">
          <mxGeometry width="50" height="50" relative="1" as="geometry">
            <mxPoint x="483.13" y="384.33" as="sourcePoint" />
            <mxPoint x="533.13" y="354.33" as="targetPoint" />
          </mxGeometry>
        </mxCell>
        <mxCell id="3L355mtgaOU9kcWpbx09-41" value="Availability" style="ellipse;whiteSpace=wrap;html=1;" vertex="1" parent="1">
          <mxGeometry x="583.13" y="453.33" width="70" height="50" as="geometry" />
        </mxCell>
        <mxCell id="3L355mtgaOU9kcWpbx09-42" value="" style="endArrow=none;html=1;rounded=0;exitX=0.75;exitY=1;exitDx=0;exitDy=0;" edge="1" parent="1" source="3L355mtgaOU9kcWpbx09-2" target="3L355mtgaOU9kcWpbx09-41">
          <mxGeometry width="50" height="50" relative="1" as="geometry">
            <mxPoint x="483.13" y="423.33" as="sourcePoint" />
            <mxPoint x="417.13" y="379.33" as="targetPoint" />
          </mxGeometry>
        </mxCell>
        <mxCell id="3L355mtgaOU9kcWpbx09-48" value="&lt;u&gt;order ID&lt;/u&gt;" style="ellipse;whiteSpace=wrap;html=1;" vertex="1" parent="1">
          <mxGeometry x="460" y="810" width="70" height="50" as="geometry" />
        </mxCell>
        <mxCell id="3L355mtgaOU9kcWpbx09-49" value="" style="endArrow=none;html=1;rounded=0;exitX=0.5;exitY=1;exitDx=0;exitDy=0;entryX=0.5;entryY=0;entryDx=0;entryDy=0;" edge="1" parent="1" source="3L355mtgaOU9kcWpbx09-4" target="3L355mtgaOU9kcWpbx09-48">
          <mxGeometry width="50" height="50" relative="1" as="geometry">
            <mxPoint x="436" y="620" as="sourcePoint" />
            <mxPoint x="560" y="532" as="targetPoint" />
          </mxGeometry>
        </mxCell>
        <mxCell id="3L355mtgaOU9kcWpbx09-50" value="customer id&amp;nbsp;" style="ellipse;whiteSpace=wrap;html=1;" vertex="1" parent="1">
          <mxGeometry x="590" y="550" width="70" height="50" as="geometry" />
        </mxCell>
        <mxCell id="3L355mtgaOU9kcWpbx09-51" value="" style="endArrow=none;html=1;rounded=0;exitX=0.75;exitY=0;exitDx=0;exitDy=0;entryX=0.5;entryY=1;entryDx=0;entryDy=0;" edge="1" parent="1" source="3L355mtgaOU9kcWpbx09-4" target="3L355mtgaOU9kcWpbx09-50">
          <mxGeometry width="50" height="50" relative="1" as="geometry">
            <mxPoint x="496" y="620" as="sourcePoint" />
            <mxPoint x="490" y="590" as="targetPoint" />
            <Array as="points" />
          </mxGeometry>
        </mxCell>
        <mxCell id="3L355mtgaOU9kcWpbx09-52" value="&lt;u&gt;Restaurant ID&lt;/u&gt;" style="ellipse;whiteSpace=wrap;html=1;" vertex="1" parent="1">
          <mxGeometry x="390" y="775" width="70" height="50" as="geometry" />
        </mxCell>
        <mxCell id="3L355mtgaOU9kcWpbx09-53" value="" style="endArrow=none;html=1;rounded=0;entryX=0.707;entryY=-0.025;entryDx=0;entryDy=0;exitX=0.25;exitY=1;exitDx=0;exitDy=0;entryPerimeter=0;" edge="1" parent="1" source="3L355mtgaOU9kcWpbx09-4" target="3L355mtgaOU9kcWpbx09-52">
          <mxGeometry width="50" height="50" relative="1" as="geometry">
            <mxPoint x="400" y="690" as="sourcePoint" />
            <mxPoint x="510" y="562" as="targetPoint" />
          </mxGeometry>
        </mxCell>
        <mxCell id="3L355mtgaOU9kcWpbx09-54" value="status" style="ellipse;whiteSpace=wrap;html=1;" vertex="1" parent="1">
          <mxGeometry x="640" y="630" width="70" height="50" as="geometry" />
        </mxCell>
        <mxCell id="3L355mtgaOU9kcWpbx09-55" value="" style="endArrow=none;html=1;rounded=0;exitX=1;exitY=0.25;exitDx=0;exitDy=0;entryX=0;entryY=1;entryDx=0;entryDy=0;" edge="1" parent="1" source="3L355mtgaOU9kcWpbx09-4" target="3L355mtgaOU9kcWpbx09-54">
          <mxGeometry width="50" height="50" relative="1" as="geometry">
            <mxPoint x="520" y="650" as="sourcePoint" />
            <mxPoint x="550" y="620" as="targetPoint" />
          </mxGeometry>
        </mxCell>
        <mxCell id="3L355mtgaOU9kcWpbx09-57" value="Total price" style="ellipse;whiteSpace=wrap;html=1;" vertex="1" parent="1">
          <mxGeometry x="620" y="720" width="70" height="50" as="geometry" />
        </mxCell>
        <mxCell id="3L355mtgaOU9kcWpbx09-58" value="" style="endArrow=none;html=1;rounded=0;entryX=0;entryY=0.5;entryDx=0;entryDy=0;" edge="1" parent="1" source="3L355mtgaOU9kcWpbx09-4" target="3L355mtgaOU9kcWpbx09-57">
          <mxGeometry width="50" height="50" relative="1" as="geometry">
            <mxPoint x="570" y="674" as="sourcePoint" />
            <mxPoint x="740" y="662" as="targetPoint" />
          </mxGeometry>
        </mxCell>
        <mxCell id="3L355mtgaOU9kcWpbx09-61" value="Time of order" style="ellipse;whiteSpace=wrap;html=1;" vertex="1" parent="1">
          <mxGeometry x="590" y="781.75" width="70" height="50" as="geometry" />
        </mxCell>
        <mxCell id="3L355mtgaOU9kcWpbx09-62" value="" style="endArrow=none;html=1;rounded=0;entryX=0.5;entryY=0;entryDx=0;entryDy=0;exitX=0.75;exitY=1;exitDx=0;exitDy=0;" edge="1" parent="1" source="3L355mtgaOU9kcWpbx09-4" target="3L355mtgaOU9kcWpbx09-61">
          <mxGeometry width="50" height="50" relative="1" as="geometry">
            <mxPoint x="520" y="680" as="sourcePoint" />
            <mxPoint x="445" y="702" as="targetPoint" />
          </mxGeometry>
        </mxCell>
        <mxCell id="3L355mtgaOU9kcWpbx09-67" value="" style="endArrow=none;html=1;rounded=0;entryX=0.5;entryY=1;entryDx=0;entryDy=0;exitX=0.392;exitY=0.033;exitDx=0;exitDy=0;exitPerimeter=0;" edge="1" parent="1" source="3L355mtgaOU9kcWpbx09-1" target="3L355mtgaOU9kcWpbx09-65">
          <mxGeometry width="50" height="50" relative="1" as="geometry">
            <mxPoint x="270" y="240" as="sourcePoint" />
            <mxPoint x="230" y="330" as="targetPoint" />
          </mxGeometry>
        </mxCell>
        <mxCell id="3L355mtgaOU9kcWpbx09-65" value="&lt;u&gt;ID&lt;/u&gt;" style="ellipse;whiteSpace=wrap;html=1;" vertex="1" parent="1">
          <mxGeometry x="124" y="244" width="70" height="50" as="geometry" />
        </mxCell>
        <mxCell id="3L355mtgaOU9kcWpbx09-76" value="Review" style="rounded=0;whiteSpace=wrap;html=1;fillColor=#f8cecc;strokeColor=#b85450;" vertex="1" parent="1">
          <mxGeometry x="-105" y="803.5" width="120" height="56.5" as="geometry" />
        </mxCell>
        <mxCell id="3L355mtgaOU9kcWpbx09-77" value="&lt;u&gt;Review ID&lt;/u&gt;" style="ellipse;whiteSpace=wrap;html=1;" vertex="1" parent="1">
          <mxGeometry x="-220" y="748" width="70" height="50" as="geometry" />
        </mxCell>
        <mxCell id="3L355mtgaOU9kcWpbx09-78" value="" style="endArrow=none;html=1;rounded=0;exitX=0.25;exitY=0;exitDx=0;exitDy=0;entryX=0.7;entryY=0.933;entryDx=0;entryDy=0;entryPerimeter=0;" edge="1" parent="1" source="3L355mtgaOU9kcWpbx09-76" target="3L355mtgaOU9kcWpbx09-77">
          <mxGeometry width="50" height="50" relative="1" as="geometry">
            <mxPoint x="-107" y="700" as="sourcePoint" />
            <mxPoint x="-135" y="670" as="targetPoint" />
          </mxGeometry>
        </mxCell>
        <mxCell id="3L355mtgaOU9kcWpbx09-81" value="Comment" style="ellipse;whiteSpace=wrap;html=1;" vertex="1" parent="1">
          <mxGeometry x="30" y="735" width="70" height="50" as="geometry" />
        </mxCell>
        <mxCell id="3L355mtgaOU9kcWpbx09-82" value="" style="endArrow=none;html=1;rounded=0;exitX=0.75;exitY=0;exitDx=0;exitDy=0;entryX=0.5;entryY=1;entryDx=0;entryDy=0;" edge="1" parent="1" source="3L355mtgaOU9kcWpbx09-76" target="3L355mtgaOU9kcWpbx09-81">
          <mxGeometry width="50" height="50" relative="1" as="geometry">
            <mxPoint x="43" y="695" as="sourcePoint" />
            <mxPoint x="180" y="607" as="targetPoint" />
          </mxGeometry>
        </mxCell>
        <mxCell id="3L355mtgaOU9kcWpbx09-83" value="Rating" style="ellipse;whiteSpace=wrap;html=1;" vertex="1" parent="1">
          <mxGeometry x="-240" y="825" width="70" height="50" as="geometry" />
        </mxCell>
        <mxCell id="3L355mtgaOU9kcWpbx09-84" value="" style="endArrow=none;html=1;rounded=0;exitX=0;exitY=0.5;exitDx=0;exitDy=0;entryX=1;entryY=0.5;entryDx=0;entryDy=0;" edge="1" parent="1" source="3L355mtgaOU9kcWpbx09-76" target="3L355mtgaOU9kcWpbx09-83">
          <mxGeometry width="50" height="50" relative="1" as="geometry">
            <mxPoint x="-115" y="740.99" as="sourcePoint" />
            <mxPoint x="9" y="652.99" as="targetPoint" />
          </mxGeometry>
        </mxCell>
        <mxCell id="3L355mtgaOU9kcWpbx09-85" value="&lt;u&gt;Restaurant ID&lt;/u&gt;" style="ellipse;whiteSpace=wrap;html=1;" vertex="1" parent="1">
          <mxGeometry x="-183" y="892" width="70" height="50" as="geometry" />
        </mxCell>
        <mxCell id="3L355mtgaOU9kcWpbx09-86" value="" style="endArrow=none;html=1;rounded=0;exitX=0.25;exitY=1;exitDx=0;exitDy=0;" edge="1" parent="1" source="3L355mtgaOU9kcWpbx09-76" target="3L355mtgaOU9kcWpbx09-85">
          <mxGeometry width="50" height="50" relative="1" as="geometry">
            <mxPoint x="-65" y="760" as="sourcePoint" />
            <mxPoint x="75" y="772" as="targetPoint" />
          </mxGeometry>
        </mxCell>
        <mxCell id="3L355mtgaOU9kcWpbx09-87" value="Date&amp;nbsp;" style="ellipse;whiteSpace=wrap;html=1;" vertex="1" parent="1">
          <mxGeometry x="-56.25" y="905" width="70" height="50" as="geometry" />
        </mxCell>
        <mxCell id="3L355mtgaOU9kcWpbx09-88" value="" style="endArrow=none;html=1;rounded=0;exitX=0.75;exitY=1;exitDx=0;exitDy=0;entryX=0.35;entryY=0.075;entryDx=0;entryDy=0;entryPerimeter=0;" edge="1" parent="1" source="3L355mtgaOU9kcWpbx09-76" target="3L355mtgaOU9kcWpbx09-87">
          <mxGeometry width="50" height="50" relative="1" as="geometry">
            <mxPoint x="41" y="880" as="sourcePoint" />
            <mxPoint x="165" y="792" as="targetPoint" />
          </mxGeometry>
        </mxCell>
        <mxCell id="3L355mtgaOU9kcWpbx09-90" value="create" style="rhombus;whiteSpace=wrap;html=1;fillColor=#fff2cc;strokeColor=#d6b656;rotation=60;" vertex="1" parent="1">
          <mxGeometry x="473.13" y="237.5" width="67.5" height="75" as="geometry" />
        </mxCell>
        <mxCell id="3L355mtgaOU9kcWpbx09-98" value="" style="endArrow=none;html=1;rounded=0;entryX=0;entryY=0.5;entryDx=0;entryDy=0;exitX=0.5;exitY=1;exitDx=0;exitDy=0;" edge="1" parent="1" source="3L355mtgaOU9kcWpbx09-207" target="3L355mtgaOU9kcWpbx09-90">
          <mxGeometry width="50" height="50" relative="1" as="geometry">
            <mxPoint x="511.25" y="564.33" as="sourcePoint" />
            <mxPoint x="514.3749999999995" y="300.1016426222753" as="targetPoint" />
          </mxGeometry>
        </mxCell>
        <mxCell id="3L355mtgaOU9kcWpbx09-107" value="Order items" style="rounded=0;whiteSpace=wrap;html=1;fillColor=#f5f5f5;fontColor=#333333;strokeColor=#666666;" vertex="1" parent="1">
          <mxGeometry x="194" y="770" width="120" height="60" as="geometry" />
        </mxCell>
        <mxCell id="3L355mtgaOU9kcWpbx09-108" value="&lt;u&gt;order item ID&lt;/u&gt;" style="ellipse;whiteSpace=wrap;html=1;" vertex="1" parent="1">
          <mxGeometry x="260" y="644" width="70" height="50" as="geometry" />
        </mxCell>
        <mxCell id="3L355mtgaOU9kcWpbx09-109" value="" style="endArrow=none;html=1;rounded=0;exitX=0.75;exitY=0;exitDx=0;exitDy=0;entryX=0.5;entryY=1;entryDx=0;entryDy=0;" edge="1" parent="1" source="3L355mtgaOU9kcWpbx09-107" target="3L355mtgaOU9kcWpbx09-108">
          <mxGeometry width="50" height="50" relative="1" as="geometry">
            <mxPoint x="220" y="760" as="sourcePoint" />
            <mxPoint x="190" y="740" as="targetPoint" />
          </mxGeometry>
        </mxCell>
        <mxCell id="3L355mtgaOU9kcWpbx09-110" value="Order ID" style="ellipse;whiteSpace=wrap;html=1;" vertex="1" parent="1">
          <mxGeometry x="170" y="652.75" width="70" height="50" as="geometry" />
        </mxCell>
        <mxCell id="3L355mtgaOU9kcWpbx09-111" value="" style="endArrow=none;html=1;rounded=0;exitX=0.25;exitY=0;exitDx=0;exitDy=0;entryX=0.5;entryY=1;entryDx=0;entryDy=0;" edge="1" parent="1" source="3L355mtgaOU9kcWpbx09-107" target="3L355mtgaOU9kcWpbx09-110">
          <mxGeometry width="50" height="50" relative="1" as="geometry">
            <mxPoint x="312.5" y="772.5" as="sourcePoint" />
            <mxPoint x="196.5" y="845" as="targetPoint" />
            <Array as="points" />
          </mxGeometry>
        </mxCell>
        <mxCell id="3L355mtgaOU9kcWpbx09-114" value="Menu item ID" style="ellipse;whiteSpace=wrap;html=1;" vertex="1" parent="1">
          <mxGeometry x="340" y="855" width="70" height="50" as="geometry" />
        </mxCell>
        <mxCell id="3L355mtgaOU9kcWpbx09-115" value="" style="endArrow=none;html=1;rounded=0;exitX=1;exitY=1;exitDx=0;exitDy=0;entryX=0.202;entryY=0.055;entryDx=0;entryDy=0;entryPerimeter=0;" edge="1" parent="1" source="3L355mtgaOU9kcWpbx09-107" target="3L355mtgaOU9kcWpbx09-114">
          <mxGeometry width="50" height="50" relative="1" as="geometry">
            <mxPoint x="336.5" y="802.5" as="sourcePoint" />
            <mxPoint x="366.5" y="772.5" as="targetPoint" />
          </mxGeometry>
        </mxCell>
        <mxCell id="3L355mtgaOU9kcWpbx09-134" value="" style="rounded=0;orthogonalLoop=1;jettySize=auto;html=1;shape=link;entryX=1;entryY=0.25;entryDx=0;entryDy=0;" edge="1" parent="1" source="3L355mtgaOU9kcWpbx09-135" target="3L355mtgaOU9kcWpbx09-107">
          <mxGeometry relative="1" as="geometry">
            <mxPoint x="448" y="890" as="targetPoint" />
          </mxGeometry>
        </mxCell>
        <mxCell id="3L355mtgaOU9kcWpbx09-135" value="Has" style="rhombus;whiteSpace=wrap;html=1;fillColor=#fff2cc;strokeColor=#d6b656;direction=south;" vertex="1" parent="1">
          <mxGeometry x="344.75" y="682.75" width="72.5" height="82" as="geometry" />
        </mxCell>
        <mxCell id="3L355mtgaOU9kcWpbx09-137" value="M" style="text;html=1;strokeColor=none;fillColor=none;align=center;verticalAlign=middle;whiteSpace=wrap;rounded=0;" vertex="1" parent="1">
          <mxGeometry x="295" y="735" width="50" height="25" as="geometry" />
        </mxCell>
        <mxCell id="3L355mtgaOU9kcWpbx09-138" value="N" style="text;html=1;strokeColor=none;fillColor=none;align=center;verticalAlign=middle;whiteSpace=wrap;rounded=0;" vertex="1" parent="1">
          <mxGeometry x="390" y="652.75" width="60" height="30" as="geometry" />
        </mxCell>
        <mxCell id="3L355mtgaOU9kcWpbx09-139" value="" style="shape=link;html=1;rounded=0;exitX=0;exitY=0.75;exitDx=0;exitDy=0;entryX=0;entryY=0;entryDx=0;entryDy=0;" edge="1" parent="1" source="3L355mtgaOU9kcWpbx09-4" target="3L355mtgaOU9kcWpbx09-135">
          <mxGeometry width="100" relative="1" as="geometry">
            <mxPoint x="460" y="690" as="sourcePoint" />
            <mxPoint x="250" y="750" as="targetPoint" />
          </mxGeometry>
        </mxCell>
        <mxCell id="3L355mtgaOU9kcWpbx09-141" value="makes" style="rhombus;whiteSpace=wrap;html=1;fillColor=#fff2cc;strokeColor=#d6b656;rotation=-45;" vertex="1" parent="1">
          <mxGeometry x="180" y="529.34" width="80" height="80" as="geometry" />
        </mxCell>
        <mxCell id="3L355mtgaOU9kcWpbx09-142" value="" style="rounded=0;orthogonalLoop=1;jettySize=auto;html=1;shape=link;entryX=0.25;entryY=0;entryDx=0;entryDy=0;exitX=0.5;exitY=1;exitDx=0;exitDy=0;" edge="1" parent="1" source="3L355mtgaOU9kcWpbx09-141">
          <mxGeometry relative="1" as="geometry">
            <mxPoint x="455" y="638.41" as="targetPoint" />
            <mxPoint x="218.28427124746213" y="570.0000000000001" as="sourcePoint" />
          </mxGeometry>
        </mxCell>
        <mxCell id="3L355mtgaOU9kcWpbx09-153" value="" style="endArrow=none;html=1;rounded=0;entryX=0;entryY=0;entryDx=0;entryDy=0;exitX=1;exitY=0.75;exitDx=0;exitDy=0;" edge="1" parent="1">
          <mxGeometry width="50" height="50" relative="1" as="geometry">
            <mxPoint x="-51.25" y="555.66" as="sourcePoint" />
            <mxPoint x="190.46572875253833" y="570.0000000000001" as="targetPoint" />
          </mxGeometry>
        </mxCell>
        <mxCell id="3L355mtgaOU9kcWpbx09-157" value="M" style="text;html=1;strokeColor=none;fillColor=none;align=center;verticalAlign=middle;whiteSpace=wrap;rounded=0;" vertex="1" parent="1">
          <mxGeometry x="390" y="550" width="60" height="30" as="geometry" />
        </mxCell>
        <mxCell id="3L355mtgaOU9kcWpbx09-207" value="Administrator" style="rounded=0;whiteSpace=wrap;html=1;fillColor=#d5e8d4;strokeColor=#82b366;" vertex="1" parent="1">
          <mxGeometry x="401.25" y="124.33" width="120" height="60" as="geometry" />
        </mxCell>
        <mxCell id="3L355mtgaOU9kcWpbx09-219" value="Phone Number" style="ellipse;whiteSpace=wrap;html=1;" vertex="1" parent="1">
          <mxGeometry x="501.25" y="49.33" width="70" height="50" as="geometry" />
        </mxCell>
        <mxCell id="3L355mtgaOU9kcWpbx09-220" value="" style="endArrow=none;html=1;rounded=0;entryX=0.5;entryY=1;entryDx=0;entryDy=0;exitX=0.75;exitY=0;exitDx=0;exitDy=0;" edge="1" parent="1" source="3L355mtgaOU9kcWpbx09-207" target="3L355mtgaOU9kcWpbx09-219">
          <mxGeometry width="50" height="50" relative="1" as="geometry">
            <mxPoint x="521.25" y="59.33" as="sourcePoint" />
            <mxPoint x="666.25" y="-20.67" as="targetPoint" />
          </mxGeometry>
        </mxCell>
        <mxCell id="3L355mtgaOU9kcWpbx09-221" value="Password" style="ellipse;whiteSpace=wrap;html=1;" vertex="1" parent="1">
          <mxGeometry x="401.25" y="49.33" width="70" height="50" as="geometry" />
        </mxCell>
        <mxCell id="3L355mtgaOU9kcWpbx09-222" value="" style="endArrow=none;html=1;rounded=0;exitX=0.25;exitY=0;exitDx=0;exitDy=0;" edge="1" parent="1" source="3L355mtgaOU9kcWpbx09-207" target="3L355mtgaOU9kcWpbx09-221">
          <mxGeometry width="50" height="50" relative="1" as="geometry">
            <mxPoint x="491.25" y="59.33" as="sourcePoint" />
            <mxPoint x="620.25" y="29.33" as="targetPoint" />
          </mxGeometry>
        </mxCell>
        <mxCell id="3L355mtgaOU9kcWpbx09-223" value="Email" style="ellipse;whiteSpace=wrap;html=1;" vertex="1" parent="1">
          <mxGeometry x="551.25" y="134.32999999999998" width="70" height="50" as="geometry" />
        </mxCell>
        <mxCell id="3L355mtgaOU9kcWpbx09-224" value="" style="endArrow=none;html=1;rounded=0;exitX=1;exitY=0.75;exitDx=0;exitDy=0;" edge="1" parent="1" source="3L355mtgaOU9kcWpbx09-207" target="3L355mtgaOU9kcWpbx09-223">
          <mxGeometry width="50" height="50" relative="1" as="geometry">
            <mxPoint x="538.25" y="57.33" as="sourcePoint" />
            <mxPoint x="686.25" y="-0.6700000000000017" as="targetPoint" />
          </mxGeometry>
        </mxCell>
        <mxCell id="3L355mtgaOU9kcWpbx09-240" value="" style="endArrow=none;html=1;rounded=0;entryX=0;entryY=0.5;entryDx=0;entryDy=0;exitX=1;exitY=1;exitDx=0;exitDy=0;" edge="1" parent="1" source="3L355mtgaOU9kcWpbx09-241" target="3L355mtgaOU9kcWpbx09-207">
          <mxGeometry width="50" height="50" relative="1" as="geometry">
            <mxPoint x="401.25" y="89.33" as="sourcePoint" />
            <mxPoint x="411.25" y="129.32999999999998" as="targetPoint" />
          </mxGeometry>
        </mxCell>
        <mxCell id="3L355mtgaOU9kcWpbx09-241" value="&lt;u&gt;Admin_ID&lt;/u&gt;" style="ellipse;whiteSpace=wrap;html=1;" vertex="1" parent="1">
          <mxGeometry x="316.25" y="49.33" width="70" height="50" as="geometry" />
        </mxCell>
        <mxCell id="3L355mtgaOU9kcWpbx09-242" value="Admin_name" style="ellipse;whiteSpace=wrap;html=1;" vertex="1" parent="1">
          <mxGeometry x="260" y="150" width="70" height="50" as="geometry" />
        </mxCell>
        <mxCell id="3L355mtgaOU9kcWpbx09-243" value="" style="endArrow=none;html=1;rounded=0;entryX=0;entryY=0.75;entryDx=0;entryDy=0;exitX=1;exitY=0.5;exitDx=0;exitDy=0;" edge="1" parent="1" target="3L355mtgaOU9kcWpbx09-207">
          <mxGeometry width="50" height="50" relative="1" as="geometry">
            <mxPoint x="331.24999999999955" y="169.32999999999998" as="sourcePoint" />
            <mxPoint x="411.25" y="129.32999999999998" as="targetPoint" />
          </mxGeometry>
        </mxCell>
        <mxCell id="3L355mtgaOU9kcWpbx09-246" value="Payment" style="rounded=0;whiteSpace=wrap;html=1;fillColor=#f5f5f5;fontColor=#333333;strokeColor=#666666;" vertex="1" parent="1">
          <mxGeometry x="-183" y="260" width="120" height="60" as="geometry" />
        </mxCell>
        <mxCell id="3L355mtgaOU9kcWpbx09-247" value="&lt;u&gt;Coupon ID&lt;/u&gt;" style="ellipse;whiteSpace=wrap;html=1;" vertex="1" parent="1">
          <mxGeometry x="-280" y="200" width="70" height="50" as="geometry" />
        </mxCell>
        <mxCell id="3L355mtgaOU9kcWpbx09-248" value="" style="endArrow=none;html=1;rounded=0;exitX=0;exitY=0;exitDx=0;exitDy=0;entryX=1.014;entryY=0.8;entryDx=0;entryDy=0;entryPerimeter=0;" edge="1" parent="1" source="3L355mtgaOU9kcWpbx09-246" target="3L355mtgaOU9kcWpbx09-247">
          <mxGeometry width="50" height="50" relative="1" as="geometry">
            <mxPoint x="-196" y="464" as="sourcePoint" />
            <mxPoint x="-210" y="360" as="targetPoint" />
          </mxGeometry>
        </mxCell>
        <mxCell id="3L355mtgaOU9kcWpbx09-249" value="Code" style="ellipse;whiteSpace=wrap;html=1;" vertex="1" parent="1">
          <mxGeometry x="-90" y="143.67000000000002" width="70" height="50.66" as="geometry" />
        </mxCell>
        <mxCell id="3L355mtgaOU9kcWpbx09-250" value="" style="endArrow=none;html=1;rounded=0;entryX=0.357;entryY=1.066;entryDx=0;entryDy=0;exitX=0.5;exitY=0;exitDx=0;exitDy=0;entryPerimeter=0;" edge="1" parent="1" source="3L355mtgaOU9kcWpbx09-246" target="3L355mtgaOU9kcWpbx09-249">
          <mxGeometry width="50" height="50" relative="1" as="geometry">
            <mxPoint x="-136" y="464" as="sourcePoint" />
            <mxPoint x="71.25" y="254.49" as="targetPoint" />
          </mxGeometry>
        </mxCell>
        <mxCell id="3L355mtgaOU9kcWpbx09-260" value="makes" style="rhombus;whiteSpace=wrap;html=1;fillColor=#fff2cc;strokeColor=#d6b656;direction=south;rotation=60;" vertex="1" parent="1">
          <mxGeometry x="-128.75" y="352.33" width="72.5" height="82" as="geometry" />
        </mxCell>
        <mxCell id="3L355mtgaOU9kcWpbx09-262" value="" style="shape=link;html=1;rounded=0;exitX=0.602;exitY=1.044;exitDx=0;exitDy=0;entryX=0.5;entryY=1;entryDx=0;entryDy=0;exitPerimeter=0;" edge="1" parent="1" source="3L355mtgaOU9kcWpbx09-246" target="3L355mtgaOU9kcWpbx09-260">
          <mxGeometry width="100" relative="1" as="geometry">
            <mxPoint x="-70" y="204.75" as="sourcePoint" />
            <mxPoint x="30" y="301.75" as="targetPoint" />
          </mxGeometry>
        </mxCell>
        <mxCell id="3L355mtgaOU9kcWpbx09-263" value="M" style="text;html=1;strokeColor=none;fillColor=none;align=center;verticalAlign=middle;whiteSpace=wrap;rounded=0;" vertex="1" parent="1">
          <mxGeometry x="-110" y="326.83" width="60" height="30" as="geometry" />
        </mxCell>
        <mxCell id="3L355mtgaOU9kcWpbx09-269" value="Promotion" style="rounded=0;whiteSpace=wrap;html=1;fillColor=#f5f5f5;fontColor=#333333;strokeColor=#666666;" vertex="1" parent="1">
          <mxGeometry x="523.75" y="1033.3400000000001" width="120" height="60" as="geometry" />
        </mxCell>
        <mxCell id="3L355mtgaOU9kcWpbx09-270" value="&lt;u&gt;Coupon ID&lt;/u&gt;" style="ellipse;whiteSpace=wrap;html=1;" vertex="1" parent="1">
          <mxGeometry x="428.73" y="995" width="70" height="50" as="geometry" />
        </mxCell>
        <mxCell id="3L355mtgaOU9kcWpbx09-271" value="" style="endArrow=none;html=1;rounded=0;exitX=0;exitY=0.25;exitDx=0;exitDy=0;" edge="1" parent="1" source="3L355mtgaOU9kcWpbx09-269" target="3L355mtgaOU9kcWpbx09-270">
          <mxGeometry width="50" height="50" relative="1" as="geometry">
            <mxPoint x="185.25" y="994.84" as="sourcePoint" />
            <mxPoint x="309.25" y="906.84" as="targetPoint" />
          </mxGeometry>
        </mxCell>
        <mxCell id="3L355mtgaOU9kcWpbx09-272" value="Code" style="ellipse;whiteSpace=wrap;html=1;" vertex="1" parent="1">
          <mxGeometry x="500" y="1144" width="70" height="50.66" as="geometry" />
        </mxCell>
        <mxCell id="3L355mtgaOU9kcWpbx09-273" value="" style="endArrow=none;html=1;rounded=0;entryX=0.5;entryY=0;entryDx=0;entryDy=0;exitX=0.5;exitY=1;exitDx=0;exitDy=0;" edge="1" parent="1" source="3L355mtgaOU9kcWpbx09-269" target="3L355mtgaOU9kcWpbx09-272">
          <mxGeometry width="50" height="50" relative="1" as="geometry">
            <mxPoint x="229.25" y="1049.8400000000001" as="sourcePoint" />
            <mxPoint x="389.25" y="907.83" as="targetPoint" />
          </mxGeometry>
        </mxCell>
        <mxCell id="3L355mtgaOU9kcWpbx09-274" value="Discount Percentage" style="ellipse;whiteSpace=wrap;html=1;" vertex="1" parent="1">
          <mxGeometry x="643.13" y="943" width="70" height="50" as="geometry" />
        </mxCell>
        <mxCell id="3L355mtgaOU9kcWpbx09-275" value="" style="endArrow=none;html=1;rounded=0;exitX=0.286;exitY=1.08;exitDx=0;exitDy=0;entryX=0.75;entryY=0;entryDx=0;entryDy=0;exitPerimeter=0;" edge="1" parent="1" source="3L355mtgaOU9kcWpbx09-274" target="3L355mtgaOU9kcWpbx09-269">
          <mxGeometry width="50" height="50" relative="1" as="geometry">
            <mxPoint x="94.25" y="992.82" as="sourcePoint" />
            <mxPoint x="191.0525506300121" y="1034.8417854410086" as="targetPoint" />
          </mxGeometry>
        </mxCell>
        <mxCell id="3L355mtgaOU9kcWpbx09-277" value="" style="shape=link;html=1;rounded=0;exitX=0.5;exitY=0;exitDx=0;exitDy=0;" edge="1" parent="1" source="3L355mtgaOU9kcWpbx09-269" target="1MNXd576yDORv5Ma8C8O-10">
          <mxGeometry width="100" relative="1" as="geometry">
            <mxPoint x="11" y="1020" as="sourcePoint" />
            <mxPoint x="581.4245237791561" y="954.7445237791558" as="targetPoint" />
          </mxGeometry>
        </mxCell>
        <mxCell id="3L355mtgaOU9kcWpbx09-282" value="" style="endArrow=none;html=1;rounded=0;entryX=0.75;entryY=1;entryDx=0;entryDy=0;exitX=1;exitY=0.5;exitDx=0;exitDy=0;" edge="1" parent="1" source="1MNXd576yDORv5Ma8C8O-10" target="3L355mtgaOU9kcWpbx09-4">
          <mxGeometry width="50" height="50" relative="1" as="geometry">
            <mxPoint x="532.4828350261105" y="914.6416697909422" as="sourcePoint" />
            <mxPoint x="264" y="840" as="targetPoint" />
          </mxGeometry>
        </mxCell>
        <mxCell id="3L355mtgaOU9kcWpbx09-292" value="Added to" style="rhombus;whiteSpace=wrap;html=1;fillColor=#fff2cc;strokeColor=#d6b656;direction=south;rotation=0;" vertex="1" parent="1">
          <mxGeometry x="215" y="910" width="72.5" height="82" as="geometry" />
        </mxCell>
        <mxCell id="3L355mtgaOU9kcWpbx09-293" value="" style="endArrow=none;html=1;rounded=0;entryX=0.621;entryY=1.013;entryDx=0;entryDy=0;entryPerimeter=0;exitX=0;exitY=0.5;exitDx=0;exitDy=0;" edge="1" parent="1" source="3L355mtgaOU9kcWpbx09-292">
          <mxGeometry width="50" height="50" relative="1" as="geometry">
            <mxPoint x="351.0868841482661" y="938.0439379288571" as="sourcePoint" />
            <mxPoint x="270.00000000000045" y="829.9999999999998" as="targetPoint" />
          </mxGeometry>
        </mxCell>
        <mxCell id="3L355mtgaOU9kcWpbx09-297" value="M" style="text;html=1;strokeColor=none;fillColor=none;align=center;verticalAlign=middle;whiteSpace=wrap;rounded=0;" vertex="1" parent="1">
          <mxGeometry x="250" y="880" width="60" height="30" as="geometry" />
        </mxCell>
        <mxCell id="3L355mtgaOU9kcWpbx09-301" value="" style="endArrow=none;html=1;rounded=0;entryX=0.25;entryY=1;entryDx=0;entryDy=0;exitX=0.643;exitY=0.01;exitDx=0;exitDy=0;exitPerimeter=0;" edge="1" parent="1" source="3L355mtgaOU9kcWpbx09-305" target="3L355mtgaOU9kcWpbx09-246">
          <mxGeometry width="50" height="50" relative="1" as="geometry">
            <mxPoint x="-270" y="370" as="sourcePoint" />
            <mxPoint x="-170" y="290" as="targetPoint" />
          </mxGeometry>
        </mxCell>
        <mxCell id="3L355mtgaOU9kcWpbx09-305" value="Type" style="ellipse;whiteSpace=wrap;html=1;" vertex="1" parent="1">
          <mxGeometry x="-205" y="348.34000000000003" width="70" height="50.66" as="geometry" />
        </mxCell>
        <mxCell id="3L355mtgaOU9kcWpbx09-311" value="" style="endArrow=none;html=1;rounded=0;entryX=0.431;entryY=1.042;entryDx=0;entryDy=0;entryPerimeter=0;" edge="1" parent="1" source="3L355mtgaOU9kcWpbx09-312" target="3L355mtgaOU9kcWpbx09-107">
          <mxGeometry width="50" height="50" relative="1" as="geometry">
            <mxPoint x="170" y="1020" as="sourcePoint" />
            <mxPoint x="130" y="850" as="targetPoint" />
          </mxGeometry>
        </mxCell>
        <mxCell id="3L355mtgaOU9kcWpbx09-312" value="image_url" style="ellipse;whiteSpace=wrap;html=1;" vertex="1" parent="1">
          <mxGeometry x="100" y="942.0000000000001" width="70" height="50" as="geometry" />
        </mxCell>
        <mxCell id="3L355mtgaOU9kcWpbx09-316" value="&lt;u&gt;Cart_id&lt;/u&gt;" style="ellipse;whiteSpace=wrap;html=1;" vertex="1" parent="1">
          <mxGeometry x="252.5" y="1160" width="70" height="50" as="geometry" />
        </mxCell>
        <mxCell id="3L355mtgaOU9kcWpbx09-317" value="" style="endArrow=none;html=1;rounded=0;entryX=0.5;entryY=1;entryDx=0;entryDy=0;exitX=0.5;exitY=0;exitDx=0;exitDy=0;" edge="1" parent="1" source="3L355mtgaOU9kcWpbx09-316" target="3L355mtgaOU9kcWpbx09-6">
          <mxGeometry width="50" height="50" relative="1" as="geometry">
            <mxPoint x="155" y="1205" as="sourcePoint" />
            <mxPoint x="205" y="1155" as="targetPoint" />
          </mxGeometry>
        </mxCell>
        <mxCell id="3L355mtgaOU9kcWpbx09-318" value="&lt;u&gt;Item_id&lt;/u&gt;" style="ellipse;whiteSpace=wrap;html=1;" vertex="1" parent="1">
          <mxGeometry x="326.25" y="920" width="70" height="50" as="geometry" />
        </mxCell>
        <mxCell id="3L355mtgaOU9kcWpbx09-319" value="" style="endArrow=none;html=1;rounded=0;exitX=0;exitY=0.5;exitDx=0;exitDy=0;entryX=0.354;entryY=0.172;entryDx=0;entryDy=0;entryPerimeter=0;" edge="1" parent="1" source="3L355mtgaOU9kcWpbx09-318" target="3L355mtgaOU9kcWpbx09-292">
          <mxGeometry width="50" height="50" relative="1" as="geometry">
            <mxPoint x="375.25126265847075" y="942.677669529664" as="sourcePoint" />
            <mxPoint x="295" y="965" as="targetPoint" />
          </mxGeometry>
        </mxCell>
        <mxCell id="3L355mtgaOU9kcWpbx09-320" value="" style="endArrow=none;html=1;rounded=0;entryX=1;entryY=0;entryDx=0;entryDy=0;exitX=0.026;exitY=0.273;exitDx=0;exitDy=0;exitPerimeter=0;" edge="1" parent="1" source="3L355mtgaOU9kcWpbx09-321" target="3L355mtgaOU9kcWpbx09-292">
          <mxGeometry width="50" height="50" relative="1" as="geometry">
            <mxPoint x="385.568661074617" y="992.0036487697657" as="sourcePoint" />
            <mxPoint x="445" y="854.5" as="targetPoint" />
          </mxGeometry>
        </mxCell>
        <mxCell id="3L355mtgaOU9kcWpbx09-321" value="User_id" style="ellipse;whiteSpace=wrap;html=1;" vertex="1" parent="1">
          <mxGeometry x="300" y="983.34" width="70" height="50" as="geometry" />
        </mxCell>
        <mxCell id="J_jbF_1rIXWuA6073IJa-2" value="Customer" style="rounded=0;whiteSpace=wrap;html=1;fillColor=#d5e8d4;strokeColor=#82b366;" vertex="1" parent="1">
          <mxGeometry x="-170" y="510" width="120" height="60" as="geometry" />
        </mxCell>
        <mxCell id="J_jbF_1rIXWuA6073IJa-7" value="Customizations" style="rounded=0;whiteSpace=wrap;html=1;fillColor=#f5f5f5;fontColor=#333333;strokeColor=#666666;" vertex="1" parent="1">
          <mxGeometry x="-85" y="1045" width="150" height="53" as="geometry" />
        </mxCell>
        <mxCell id="J_jbF_1rIXWuA6073IJa-8" value="Has" style="rhombus;whiteSpace=wrap;html=1;fillColor=#fff2cc;strokeColor=#d6b656;direction=south;rotation=30;" vertex="1" parent="1">
          <mxGeometry x="13.75" y="933" width="72.5" height="72" as="geometry" />
        </mxCell>
        <mxCell id="J_jbF_1rIXWuA6073IJa-15" value="is a" style="rhombus;whiteSpace=wrap;html=1;fillColor=#fff2cc;strokeColor=#d6b656;direction=west;rotation=-30;" vertex="1" parent="1">
          <mxGeometry x="-40" y="417.5" width="82" height="72.5" as="geometry" />
        </mxCell>
        <mxCell id="J_jbF_1rIXWuA6073IJa-16" value="" style="endArrow=none;html=1;rounded=0;exitX=1;exitY=0.5;exitDx=0;exitDy=0;entryX=0.5;entryY=0;entryDx=0;entryDy=0;" edge="1" parent="1" source="J_jbF_1rIXWuA6073IJa-15" target="J_jbF_1rIXWuA6073IJa-2">
          <mxGeometry width="50" height="50" relative="1" as="geometry">
            <mxPoint x="240" y="500" as="sourcePoint" />
            <mxPoint x="290" y="450" as="targetPoint" />
          </mxGeometry>
        </mxCell>
        <mxCell id="J_jbF_1rIXWuA6073IJa-18" value="makes" style="rhombus;whiteSpace=wrap;html=1;fillColor=#fff2cc;strokeColor=#d6b656;direction=south;rotation=0;" vertex="1" parent="1">
          <mxGeometry x="-143.75" y="644" width="72.5" height="82" as="geometry" />
        </mxCell>
        <mxCell id="J_jbF_1rIXWuA6073IJa-19" value="" style="shape=link;html=1;rounded=0;exitX=0.5;exitY=1;exitDx=0;exitDy=0;entryX=0;entryY=0.5;entryDx=0;entryDy=0;" edge="1" parent="1" source="J_jbF_1rIXWuA6073IJa-2" target="J_jbF_1rIXWuA6073IJa-18">
          <mxGeometry width="100" relative="1" as="geometry">
            <mxPoint x="220" y="640" as="sourcePoint" />
            <mxPoint x="320" y="640" as="targetPoint" />
          </mxGeometry>
        </mxCell>
        <mxCell id="J_jbF_1rIXWuA6073IJa-20" value="" style="shape=link;html=1;rounded=0;exitX=1;exitY=0.5;exitDx=0;exitDy=0;" edge="1" parent="1" source="J_jbF_1rIXWuA6073IJa-18" target="3L355mtgaOU9kcWpbx09-76">
          <mxGeometry width="100" relative="1" as="geometry">
            <mxPoint x="220" y="790" as="sourcePoint" />
            <mxPoint x="320" y="790" as="targetPoint" />
          </mxGeometry>
        </mxCell>
        <mxCell id="J_jbF_1rIXWuA6073IJa-24" value="" style="endArrow=none;html=1;rounded=0;exitX=0;exitY=0.5;exitDx=0;exitDy=0;entryX=0.25;entryY=1;entryDx=0;entryDy=0;" edge="1" parent="1" source="J_jbF_1rIXWuA6073IJa-8" target="3L355mtgaOU9kcWpbx09-107">
          <mxGeometry width="50" height="50" relative="1" as="geometry">
            <mxPoint x="240" y="950" as="sourcePoint" />
            <mxPoint x="290" y="900" as="targetPoint" />
          </mxGeometry>
        </mxCell>
        <mxCell id="J_jbF_1rIXWuA6073IJa-25" value="" style="shape=link;html=1;rounded=0;exitX=1;exitY=0.5;exitDx=0;exitDy=0;entryX=0.5;entryY=0;entryDx=0;entryDy=0;" edge="1" parent="1" source="J_jbF_1rIXWuA6073IJa-8" target="J_jbF_1rIXWuA6073IJa-7">
          <mxGeometry width="100" relative="1" as="geometry">
            <mxPoint x="115" y="935" as="sourcePoint" />
            <mxPoint x="215" y="935" as="targetPoint" />
          </mxGeometry>
        </mxCell>
        <mxCell id="J_jbF_1rIXWuA6073IJa-26" value="is a" style="rhombus;whiteSpace=wrap;html=1;fillColor=#fff2cc;strokeColor=#d6b656;direction=south;rotation=30;" vertex="1" parent="1">
          <mxGeometry x="289.36" y="244.82999999999998" width="72.5" height="82" as="geometry" />
        </mxCell>
        <mxCell id="J_jbF_1rIXWuA6073IJa-28" value="" style="endArrow=none;html=1;rounded=0;entryX=1;entryY=1;entryDx=0;entryDy=0;exitX=0.75;exitY=0;exitDx=0;exitDy=0;" edge="1" parent="1" source="3L355mtgaOU9kcWpbx09-1" target="J_jbF_1rIXWuA6073IJa-26">
          <mxGeometry width="50" height="50" relative="1" as="geometry">
            <mxPoint x="240" y="380" as="sourcePoint" />
            <mxPoint x="290" y="330" as="targetPoint" />
          </mxGeometry>
        </mxCell>
        <mxCell id="Tjv-21yvvrsE-sKUN0TQ-1" value="" style="endArrow=none;html=1;rounded=0;entryX=0;entryY=0.65;entryDx=0;entryDy=0;entryPerimeter=0;exitX=1.014;exitY=0.711;exitDx=0;exitDy=0;exitPerimeter=0;" edge="1" parent="1" source="Tjv-21yvvrsE-sKUN0TQ-2" target="J_jbF_1rIXWuA6073IJa-2">
          <mxGeometry width="50" height="50" relative="1" as="geometry">
            <mxPoint x="-200" y="559.67" as="sourcePoint" />
            <mxPoint x="-123" y="544.67" as="targetPoint" />
          </mxGeometry>
        </mxCell>
        <mxCell id="Tjv-21yvvrsE-sKUN0TQ-2" value="&lt;u&gt;custumer_id&lt;/u&gt;" style="ellipse;whiteSpace=wrap;html=1;" vertex="1" parent="1">
          <mxGeometry x="-370" y="529.3399999999999" width="70" height="50.66" as="geometry" />
        </mxCell>
        <mxCell id="Tjv-21yvvrsE-sKUN0TQ-4" value="" style="endArrow=none;html=1;rounded=0;exitX=0.5;exitY=0;exitDx=0;exitDy=0;entryX=0.419;entryY=-0.011;entryDx=0;entryDy=0;entryPerimeter=0;" edge="1" parent="1" source="3L355mtgaOU9kcWpbx09-260" target="J_jbF_1rIXWuA6073IJa-2">
          <mxGeometry width="50" height="50" relative="1" as="geometry">
            <mxPoint x="150" y="427.5" as="sourcePoint" />
            <mxPoint x="160" y="368" as="targetPoint" />
          </mxGeometry>
        </mxCell>
        <mxCell id="Tjv-21yvvrsE-sKUN0TQ-16" value="N" style="text;html=1;strokeColor=none;fillColor=none;align=center;verticalAlign=middle;whiteSpace=wrap;rounded=0;" vertex="1" parent="1">
          <mxGeometry x="60" y="520" width="60" height="30" as="geometry" />
        </mxCell>
        <mxCell id="Tjv-21yvvrsE-sKUN0TQ-19" value="1" style="text;html=1;strokeColor=none;fillColor=none;align=center;verticalAlign=middle;whiteSpace=wrap;rounded=0;" vertex="1" parent="1">
          <mxGeometry x="200" y="1025" width="60" height="30" as="geometry" />
        </mxCell>
        <mxCell id="ijsjfoL8Ja-BUJkPJbGe-1" value="1" style="text;html=1;align=center;verticalAlign=middle;resizable=0;points=[];autosize=1;strokeColor=none;fillColor=none;" vertex="1" parent="1">
          <mxGeometry x="60" y="380" width="30" height="30" as="geometry" />
        </mxCell>
        <mxCell id="ijsjfoL8Ja-BUJkPJbGe-2" value="1" style="text;html=1;align=center;verticalAlign=middle;resizable=0;points=[];autosize=1;strokeColor=none;fillColor=none;" vertex="1" parent="1">
          <mxGeometry x="-128.75" y="449" width="30" height="30" as="geometry" />
        </mxCell>
        <mxCell id="JxXtUwm-7rCd4WAhIn9f-10" value="" style="endArrow=none;html=1;rounded=0;exitX=0.5;exitY=0;exitDx=0;exitDy=0;" edge="1" parent="1" source="JxXtUwm-7rCd4WAhIn9f-12" target="J_jbF_1rIXWuA6073IJa-7">
          <mxGeometry width="50" height="50" relative="1" as="geometry">
            <mxPoint x="-15" y="1175" as="sourcePoint" />
            <mxPoint x="35" y="1115" as="targetPoint" />
          </mxGeometry>
        </mxCell>
        <mxCell id="JxXtUwm-7rCd4WAhIn9f-12" value="PRICE" style="ellipse;whiteSpace=wrap;html=1;" vertex="1" parent="1">
          <mxGeometry x="-145" y="1174" width="80" height="59.34" as="geometry" />
        </mxCell>
        <mxCell id="JxXtUwm-7rCd4WAhIn9f-15" value="" style="endArrow=none;html=1;rounded=0;entryX=0.834;entryY=1.009;entryDx=0;entryDy=0;entryPerimeter=0;exitX=0.5;exitY=0;exitDx=0;exitDy=0;" edge="1" parent="1" source="JxXtUwm-7rCd4WAhIn9f-16" target="J_jbF_1rIXWuA6073IJa-7">
          <mxGeometry width="50" height="50" relative="1" as="geometry">
            <mxPoint x="190" y="1200" as="sourcePoint" />
            <mxPoint x="-20" y="1140" as="targetPoint" />
            <Array as="points" />
          </mxGeometry>
        </mxCell>
        <mxCell id="JxXtUwm-7rCd4WAhIn9f-16" value="AVAILABILITY" style="ellipse;whiteSpace=wrap;html=1;" vertex="1" parent="1">
          <mxGeometry x="43.75" y="1194.66" width="92.5" height="60" as="geometry" />
        </mxCell>
        <mxCell id="ijsjfoL8Ja-BUJkPJbGe-9" value="1" style="text;html=1;align=center;verticalAlign=middle;resizable=0;points=[];autosize=1;strokeColor=none;fillColor=none;" vertex="1" parent="1">
          <mxGeometry x="523.75" y="304.33000000000004" width="30" height="30" as="geometry" />
        </mxCell>
        <mxCell id="JxXtUwm-7rCd4WAhIn9f-17" value="" style="endArrow=none;html=1;rounded=0;exitX=0.5;exitY=0;exitDx=0;exitDy=0;" edge="1" parent="1" source="JxXtUwm-7rCd4WAhIn9f-18">
          <mxGeometry width="50" height="50" relative="1" as="geometry">
            <mxPoint x="-10" y="1220" as="sourcePoint" />
            <mxPoint x="-9" y="1098" as="targetPoint" />
          </mxGeometry>
        </mxCell>
        <mxCell id="ijsjfoL8Ja-BUJkPJbGe-10" value="1" style="text;html=1;align=center;verticalAlign=middle;resizable=0;points=[];autosize=1;strokeColor=none;fillColor=none;" vertex="1" parent="1">
          <mxGeometry x="641.25" y="288.33" width="30" height="30" as="geometry" />
        </mxCell>
        <mxCell id="JxXtUwm-7rCd4WAhIn9f-18" value="DESCRIPTION" style="ellipse;whiteSpace=wrap;html=1;" vertex="1" parent="1">
          <mxGeometry x="-71.25" y="1220" width="117.5" height="60" as="geometry" />
        </mxCell>
        <mxCell id="JxXtUwm-7rCd4WAhIn9f-19" value="" style="endArrow=none;html=1;rounded=0;entryX=0.956;entryY=0.2;entryDx=0;entryDy=0;entryPerimeter=0;" edge="1" parent="1" source="J_jbF_1rIXWuA6073IJa-7" target="JxXtUwm-7rCd4WAhIn9f-20">
          <mxGeometry width="50" height="50" relative="1" as="geometry">
            <mxPoint x="-35" y="1125" as="sourcePoint" />
            <mxPoint x="-107.80999999999995" y="1168.6" as="targetPoint" />
            <Array as="points" />
          </mxGeometry>
        </mxCell>
        <mxCell id="ijsjfoL8Ja-BUJkPJbGe-12" value="1" style="text;html=1;align=center;verticalAlign=middle;resizable=0;points=[];autosize=1;strokeColor=none;fillColor=none;" vertex="1" parent="1">
          <mxGeometry x="346.25" y="194.32999999999998" width="30" height="30" as="geometry" />
        </mxCell>
        <mxCell id="cyhhGZ06pU2nMbJkFBrJ-1" value="" style="shape=link;html=1;rounded=0;exitX=0;exitY=0.5;exitDx=0;exitDy=0;entryX=0;entryY=1;entryDx=0;entryDy=0;" edge="1" parent="1" source="J_jbF_1rIXWuA6073IJa-15" target="3L355mtgaOU9kcWpbx09-1">
          <mxGeometry width="100" relative="1" as="geometry">
            <mxPoint x="110" y="430" as="sourcePoint" />
            <mxPoint x="210" y="430" as="targetPoint" />
          </mxGeometry>
        </mxCell>
        <mxCell id="ijsjfoL8Ja-BUJkPJbGe-13" value="1" style="text;html=1;align=center;verticalAlign=middle;resizable=0;points=[];autosize=1;strokeColor=none;fillColor=none;" vertex="1" parent="1">
          <mxGeometry x="267.5" y="264" width="30" height="30" as="geometry" />
        </mxCell>
        <mxCell id="cyhhGZ06pU2nMbJkFBrJ-2" value="M" style="text;html=1;strokeColor=none;fillColor=none;align=center;verticalAlign=middle;whiteSpace=wrap;rounded=0;" vertex="1" parent="1">
          <mxGeometry x="-170" y="605.33" width="60" height="30" as="geometry" />
        </mxCell>
        <mxCell id="cyhhGZ06pU2nMbJkFBrJ-9" style="edgeStyle=orthogonalEdgeStyle;rounded=0;orthogonalLoop=1;jettySize=auto;html=1;exitX=0.5;exitY=1;exitDx=0;exitDy=0;" edge="1" parent="1" source="cyhhGZ06pU2nMbJkFBrJ-7" target="cyhhGZ06pU2nMbJkFBrJ-7">
          <mxGeometry relative="1" as="geometry" />
        </mxCell>
        <mxCell id="JxXtUwm-7rCd4WAhIn9f-20" value="&lt;u&gt;CUSTOMIZATION&amp;nbsp;&lt;br&gt;ID&lt;/u&gt;" style="ellipse;whiteSpace=wrap;html=1;" vertex="1" parent="1">
          <mxGeometry x="-263.75" y="1114" width="120" height="60" as="geometry" />
        </mxCell>
        <mxCell id="cyhhGZ06pU2nMbJkFBrJ-8" value="M" style="text;html=1;strokeColor=none;fillColor=none;align=center;verticalAlign=middle;whiteSpace=wrap;rounded=0;" vertex="1" parent="1">
          <mxGeometry y="1012" width="60" height="30" as="geometry" />
        </mxCell>
        <mxCell id="1MNXd576yDORv5Ma8C8O-1" value="1" style="text;html=1;strokeColor=none;fillColor=none;align=center;verticalAlign=middle;whiteSpace=wrap;rounded=0;" vertex="1" parent="1">
          <mxGeometry x="421.25" y="219.32999999999998" width="60" height="30" as="geometry" />
        </mxCell>
        <mxCell id="cyhhGZ06pU2nMbJkFBrJ-3" value="N" style="text;html=1;strokeColor=none;fillColor=none;align=center;verticalAlign=middle;whiteSpace=wrap;rounded=0;" vertex="1" parent="1">
          <mxGeometry x="-105" y="726" width="60" height="30" as="geometry" />
        </mxCell>
        <mxCell id="1MNXd576yDORv5Ma8C8O-8" value="M" style="text;html=1;strokeColor=none;fillColor=none;align=center;verticalAlign=middle;whiteSpace=wrap;rounded=0;" vertex="1" parent="1">
          <mxGeometry x="530" y="953.34" width="60" height="30" as="geometry" />
        </mxCell>
        <mxCell id="1MNXd576yDORv5Ma8C8O-10" value="Has" style="rhombus;whiteSpace=wrap;html=1;fillColor=#fff2cc;strokeColor=#d6b656;direction=north;rotation=-15;" vertex="1" parent="1">
          <mxGeometry x="530" y="842.25" width="72.5" height="72" as="geometry" />
        </mxCell>
        <mxCell id="cyhhGZ06pU2nMbJkFBrJ-7" value="M" style="text;html=1;strokeColor=none;fillColor=none;align=center;verticalAlign=middle;whiteSpace=wrap;rounded=0;" vertex="1" parent="1">
          <mxGeometry x="95" y="871" width="60" height="30" as="geometry" />
        </mxCell>
        <mxCell id="1MNXd576yDORv5Ma8C8O-12" value="" style="shape=link;html=1;rounded=0;exitX=1;exitY=0.5;exitDx=0;exitDy=0;entryX=0.5;entryY=0;entryDx=0;entryDy=0;" edge="1" parent="1" source="3L355mtgaOU9kcWpbx09-90" target="3L355mtgaOU9kcWpbx09-2">
          <mxGeometry width="100" relative="1" as="geometry">
            <mxPoint x="270" y="360" as="sourcePoint" />
            <mxPoint x="370" y="360" as="targetPoint" />
          </mxGeometry>
        </mxCell>
        <mxCell id="1MNXd576yDORv5Ma8C8O-13" value="" style="shape=link;html=1;rounded=0;exitX=0;exitY=0.5;exitDx=0;exitDy=0;entryX=0.25;entryY=1;entryDx=0;entryDy=0;" edge="1" parent="1" source="J_jbF_1rIXWuA6073IJa-26" target="3L355mtgaOU9kcWpbx09-207">
          <mxGeometry width="100" relative="1" as="geometry">
            <mxPoint x="311.25" y="194.32999999999998" as="sourcePoint" />
            <mxPoint x="422.25" y="189.32999999999998" as="targetPoint" />
          </mxGeometry>
        </mxCell>
        <mxCell id="1MNXd576yDORv5Ma8C8O-15" value="" style="shape=link;html=1;rounded=0;exitX=1;exitY=0.5;exitDx=0;exitDy=0;entryX=0.25;entryY=0;entryDx=0;entryDy=0;" edge="1" parent="1" source="3L355mtgaOU9kcWpbx09-292" target="3L355mtgaOU9kcWpbx09-6">
          <mxGeometry width="100" relative="1" as="geometry">
            <mxPoint x="270" y="900" as="sourcePoint" />
            <mxPoint x="370" y="900" as="targetPoint" />
          </mxGeometry>
        </mxCell>
        <mxCell id="ijsjfoL8Ja-BUJkPJbGe-18" value="1" style="text;html=1;align=center;verticalAlign=middle;resizable=0;points=[];autosize=1;strokeColor=none;fillColor=none;" vertex="1" parent="1">
          <mxGeometry x="525" y="768" width="30" height="30" as="geometry" />
        </mxCell>
        <mxCell id="ijsjfoL8Ja-BUJkPJbGe-22" value="" style="endArrow=none;html=1;rounded=0;exitX=0.39;exitY=-0.06;exitDx=0;exitDy=0;exitPerimeter=0;" edge="1" parent="1">
          <mxGeometry width="50" height="50" relative="1" as="geometry">
            <mxPoint x="-136.20000000000005" y="260.4" as="sourcePoint" />
            <mxPoint x="-190" y="164" as="targetPoint" />
          </mxGeometry>
        </mxCell>
        <mxCell id="ijsjfoL8Ja-BUJkPJbGe-23" value="&lt;font style=&quot;font-size: 14px;&quot;&gt;amount&lt;/font&gt;" style="ellipse;whiteSpace=wrap;html=1;" vertex="1" parent="1">
          <mxGeometry x="-218.75" y="143.67000000000002" width="75" height="50" as="geometry" />
        </mxCell>
        <mxCell id="BeFVIxYe3osoTDhTQAYw-1" value="1" style="text;html=1;align=center;verticalAlign=middle;resizable=0;points=[];autosize=1;strokeColor=none;fillColor=none;" vertex="1" parent="1">
          <mxGeometry x="-85" y="458" width="30" height="30" as="geometry" />
        </mxCell>
        <mxCell id="cCZyc9L0msEk9JKd_7Td-2" value="" style="endArrow=none;html=1;rounded=0;entryX=0;entryY=0.65;entryDx=0;entryDy=0;entryPerimeter=0;" edge="1" parent="1">
          <mxGeometry width="50" height="50" relative="1" as="geometry">
            <mxPoint x="-260" y="290" as="sourcePoint" />
            <mxPoint x="-183" y="289" as="targetPoint" />
          </mxGeometry>
        </mxCell>
        <mxCell id="cCZyc9L0msEk9JKd_7Td-3" value="custumer_id" style="ellipse;whiteSpace=wrap;html=1;" vertex="1" parent="1">
          <mxGeometry x="-320" y="263.99999999999994" width="70" height="50.66" as="geometry" />
        </mxCell>
        <mxCell id="cCZyc9L0msEk9JKd_7Td-5" value="order item ID" style="ellipse;whiteSpace=wrap;html=1;" vertex="1" parent="1">
          <mxGeometry x="-275" y="1042" width="70" height="50" as="geometry" />
        </mxCell>
        <mxCell id="cCZyc9L0msEk9JKd_7Td-6" value="" style="endArrow=none;html=1;rounded=0;entryX=1;entryY=0.5;entryDx=0;entryDy=0;" edge="1" parent="1" target="cCZyc9L0msEk9JKd_7Td-5">
          <mxGeometry width="50" height="50" relative="1" as="geometry">
            <mxPoint x="-90" y="1060" as="sourcePoint" />
            <mxPoint x="-308.75" y="1079.34" as="targetPoint" />
          </mxGeometry>
        </mxCell>
        <mxCell id="cCZyc9L0msEk9JKd_7Td-7" value="" style="endArrow=none;html=1;rounded=0;entryX=1;entryY=1;entryDx=0;entryDy=0;exitX=0;exitY=0;exitDx=0;exitDy=0;" edge="1" parent="1" source="3L355mtgaOU9kcWpbx09-107" target="cCZyc9L0msEk9JKd_7Td-8">
          <mxGeometry width="50" height="50" relative="1" as="geometry">
            <mxPoint x="182.88" y="810" as="sourcePoint" />
            <mxPoint x="153.07000000000005" y="880.5999999999999" as="targetPoint" />
            <Array as="points" />
          </mxGeometry>
        </mxCell>
        <mxCell id="cCZyc9L0msEk9JKd_7Td-8" value="CUSTOMIZATION&amp;nbsp;&lt;br&gt;ID" style="ellipse;whiteSpace=wrap;html=1;" vertex="1" parent="1">
          <mxGeometry x="18.749999999999996" y="655" width="120" height="60" as="geometry" />
        </mxCell>
      </root>
    </mxGraphModel>
  </diagram>
</mxfile>
